<svg id="Capa_1" enable-background="new 0 0 511.96 511.96" height="512" viewBox="0 0 511.96 511.96" width="512" xmlns="http://www.w3.org/2000/svg"><g><g><g><circle cx="105.996" cy="132.51" fill="#acacac" r="26.326"/></g><g><circle cx="133.258" cy="231.181" fill="#acacac" r="26.326"/></g><g><circle cx="133.258" cy="33.838" fill="#acacac" r="26.326"/></g><g><path d="m132.322 132.507c0 14.54-11.79 26.33-26.33 26.33-9.01 0-16.96-4.53-21.7-11.43 1.53.29 3.1.43 4.7.43 14.54 0 26.33-11.79 26.33-26.33 0-5.53-1.71-10.66-4.63-14.9 12.3 2.21 21.63 12.96 21.63 25.9z" fill="#9c9c9c"/></g><g><path d="m147.732 253.167c-12.01 7.91-28.09 4.71-36.18-7.09 6.42 1.17 13.29-.03 19.18-3.91 12.14-7.99 15.51-24.32 7.52-36.46-.1-.15-.19-.29-.29-.43 6.83 1.24 13.17 5.17 17.29 11.43 7.99 12.14 4.62 28.47-7.52 36.46z" fill="#9c9c9c"/></g><g><path d="m155.252 48.317c-8 12.14-24.32 15.51-36.47 7.51-2.93-1.93-5.35-4.35-7.22-7.07 10.07 1.81 20.71-2.36 26.69-11.44 6.06-9.21 5.59-20.83-.3-29.39 3.39.61 6.72 1.91 9.78 3.92 12.14 7.99 15.51 24.32 7.52 36.47z" fill="#9c9c9c"/></g><g><circle cx="291.363" cy="132.51" fill="#5a5a5a" r="51.483"/></g><g><path d="m342.842 132.507c0 28.44-23.05 51.49-51.48 51.49-12.33 0-23.66-4.34-32.52-11.58 4.05 1.03 8.3 1.58 12.68 1.58 28.43 0 51.48-23.05 51.48-51.49 0-16.1-7.39-30.47-18.96-39.9 22.3 5.65 38.8 25.85 38.8 49.9z" fill="#444"/></g></g><g><g><g><path d="m413.491 496.94v-39.719c0-4.154-3.367-7.521-7.521-7.521h-138.189c-4.154 0-7.521 3.367-7.521 7.521v39.719c0 4.154 3.367 7.521 7.521 7.521h138.189c4.153-.001 7.521-3.368 7.521-7.521z" fill="#e94444"/></g><g><path d="m413.492 457.217v39.72c0 4.16-3.37 7.52-7.52 7.52h-21.18c4.16 0 7.52-3.36 7.52-7.52v-39.72c0-4.15-3.36-7.52-7.52-7.52h21.18c4.15 0 7.52 3.37 7.52 7.52z" fill="#d83131"/></g><g><path d="m378.897 449.7h-101.868v-16.298-2.563c0-7.293-2.967-14.272-8.218-19.334l-28.44-30.956c-10.797-11.752-17.109-26.931-17.829-42.873l-2.495-55.245c-.254-5.632 4.243-10.338 9.881-10.338 9.962 0 18.955 5.968 22.825 15.148l4.289 13.066c1.174 3.575 4.821 5.721 8.516 5.011 3.512-.675 6.054-3.743 6.065-7.319l.465-143.853c0-10.858 8.443-20.106 19.295-20.492 11.392-.405 20.755 8.71 20.755 20.012v75.97c0-11.302 9.363-20.417 20.755-20.012 10.851.386 19.295 9.634 19.295 20.492v14.541c0-11.302 9.363-20.417 20.755-20.012 10.852.386 19.295 9.634 19.295 20.493v20.024c0-11.302 9.363-20.417 20.755-20.012 10.852.386 19.295 9.634 19.295 20.493v77.974c0 13.709-4.237 27.084-12.13 38.292l-11.419 16.214c-7.894 11.209-12.13 24.583-12.13 38.292v13.285z" fill="#fed2a4"/></g><g><path d="m432.292 265.647v77.97c0 13.71-4.24 27.09-12.13 38.29l-11.42 16.22c-7.89 11.21-12.13 24.58-12.13 38.29v13.28h-18.8v-13.28c0-13.71 4.24-34.4 12.13-45.61l11.42-16.21c7.89-11.21 12.13-24.59 12.13-38.3v-70.65c0-7.74-4.29-14.66-10.68-18.14 3.01-1.62 6.49-2.49 10.18-2.36 10.86.39 19.3 9.64 19.3 20.5z" fill="#ffbd86"/></g></g><g><path d="m291.192 58.637c.81-.027 1.623-.041 2.438-.041 39.506 0 71.646 32.14 71.646 71.646 0 4.143 3.357 7.5 7.5 7.5s7.5-3.357 7.5-7.5c0-47.776-38.869-86.646-86.646-86.646-.985 0-1.969.016-2.946.049-4.14.141-7.382 3.61-7.242 7.75.141 4.141 3.643 7.372 7.75 7.242z"/><path d="m413.263 237.657c-4.909-.181-9.641.921-13.845 3.146-1.975-13.109-12.776-23.174-26.205-23.651-5.388-.194-10.563 1.146-15.061 3.831-3.668-10.59-13.485-18.443-24.99-18.853-4.784-.16-9.399.865-13.521 2.979v-20.875c18.278-10.03 30.706-29.445 30.706-51.725l-.003-.645c-.043-4.115-3.393-7.422-7.498-7.422h-.08c-4.142.043-7.465 3.436-7.422 7.578l.003.488c0 13.486-6.118 25.552-15.706 33.624v-12.466c0-7.537-2.987-14.572-8.412-19.808-5.424-5.232-12.555-7.967-20.111-7.699-14.875.53-26.527 12.824-26.527 27.964l-.039 13.201c-10.43-8.048-17.171-20.653-17.171-34.816 0-24.252 19.731-43.982 43.983-43.982 12.966 0 25.211 5.684 33.595 15.593 2.675 3.162 7.408 3.557 10.569.882 3.163-2.675 3.558-7.407.882-10.569-11.239-13.286-27.658-20.905-45.046-20.905-19.486 0-36.787 9.504-47.533 24.113l-78.903-51.935c5.417-14.455.354-31.284-13.072-40.122-7.547-4.969-16.578-6.701-25.427-4.875-8.849 1.824-16.458 6.985-21.426 14.533-4.968 7.547-6.699 16.576-4.875 25.426s6.985 16.459 14.532 21.426c5.717 3.763 12.165 5.562 18.546 5.562 8.604 0 17.075-3.285 23.469-9.424l79.864 52.567c-1.786 4.495-3.033 9.257-3.665 14.211h-93.9c-3.422-15.053-16.904-26.326-32.978-26.326-18.652 0-33.826 15.175-33.826 33.826 0 18.652 15.174 33.827 33.826 33.827 16.074 0 29.556-11.274 32.978-26.327h93.891c.633 4.956 1.881 9.72 3.669 14.215l-79.854 52.561c-11.135-10.692-28.594-12.698-42.02-3.859-7.547 4.967-12.708 12.576-14.533 21.426-1.824 8.85-.093 17.879 4.875 25.426 4.968 7.548 12.577 12.709 21.426 14.533 2.297.474 4.605.707 6.898.707 6.539 0 12.941-1.903 18.529-5.582 13.426-8.838 18.489-25.666 13.072-40.122l78.912-51.94c5.413 7.349 12.484 13.407 20.661 17.61l-.33 112.985-4.29-13.065c-.063-.193-.135-.385-.215-.573-5.053-11.989-16.726-19.735-29.736-19.735-4.725 0-9.307 1.959-12.572 5.374-3.265 3.416-5.015 8.082-4.801 12.802l2.495 55.245c.747 16.529 7.036 32.595 17.709 45.236 2.672 3.167 7.405 3.565 10.569.893 3.165-2.672 3.564-7.404.892-10.568-8.55-10.127-13.588-22.996-14.186-36.237l-2.495-55.244c-.04-.89.396-1.485.66-1.761s.839-.739 1.729-.739c6.87 0 13.042 4.035 15.804 10.306l4.185 12.748c2.346 7.142 9.688 11.453 17.058 10.036 7.019-1.349 12.128-7.515 12.149-14.659l.465-143.877c0-6.93 5.411-12.761 12.062-12.998 3.425-.098 6.692 1.121 9.16 3.503 2.47 2.383 3.829 5.584 3.829 9.014l.032 145.943c0 4.143 3.357 7.5 7.5 7.5s7.5-3.357 7.5-7.5v-70.623c.161-3.182 1.484-6.134 3.797-8.365 2.468-2.381 5.739-3.615 9.159-3.502 6.65.236 12.062 6.067 12.062 12.997l.018 69.493c0 4.143 3.357 7.5 7.5 7.5s7.5-3.357 7.5-7.5v-55.306c.091-3.294 1.428-6.359 3.812-8.659 2.468-2.382 5.734-3.607 9.16-3.503 6.65.236 12.062 6.067 12.062 12.997l-.07 54.472c0 4.143 3.357 7.5 7.5 7.5s7.5-3.357 7.5-7.5c0 0 .07-34.116.07-34.447 0-3.43 1.359-6.632 3.829-9.015 2.467-2.381 5.712-3.638 9.158-3.502 6.651.237 12.063 6.068 12.063 12.998v77.975c0 12.228-3.722 23.976-10.763 33.974l-11.418 16.214c-8.831 12.539-13.499 27.273-13.499 42.61v5.783h-104.585v-11.361c0-9.199-3.766-18.138-10.338-24.564l-6.407-6.975c-2.804-3.05-7.549-3.252-10.598-.449-3.05 2.803-3.251 7.547-.449 10.598l6.551 7.132c.104.111.209.221.319.326 3.763 3.627 5.921 8.705 5.921 13.933v11.361h-1.747c-8.282 0-15.02 6.738-15.02 15.021v39.719c0 8.282 6.738 15.021 15.02 15.021h138.19c8.282 0 15.021-6.738 15.021-15.021v-39.719c0-8.282-6.738-15.021-15.021-15.021h-1.858v-5.783c0-12.229 3.722-23.976 10.763-33.974l11.418-16.214c8.831-12.54 13.499-27.274 13.499-42.61v-77.975c-.001-15.168-11.653-27.462-26.529-27.992zm-264.28-193.468c-5.708 8.672-17.404 11.083-26.077 5.375-4.2-2.765-7.072-6.999-8.087-11.925-1.015-4.925-.052-9.95 2.713-14.151 2.765-4.2 7-7.073 11.925-8.088 1.278-.264 2.563-.394 3.839-.394 3.639 0 7.202 1.06 10.312 3.106 8.671 5.708 11.082 17.406 5.375 26.077zm-42.987 107.147c-10.381 0-18.826-8.446-18.826-18.827s8.445-18.826 18.826-18.826 18.827 8.445 18.827 18.826-8.447 18.827-18.827 18.827zm37.612 95.571c-4.201 2.766-9.227 3.73-14.151 2.713-4.925-1.015-9.16-3.888-11.925-8.088-2.765-4.201-3.728-9.227-2.713-14.151 1.015-4.926 3.887-9.16 8.088-11.925 3.182-2.095 6.771-3.096 10.322-3.096 6.127 0 12.142 2.981 15.755 8.471v-.001c5.706 8.671 3.295 20.37-5.376 26.077zm262.382 210.314v39.719l-.021.021-138.209-.021.021-39.739z"/></g></g></g></svg>