<?xml version="1.0" encoding="iso-8859-1"?>
<!-- Generator: Adobe Illustrator 19.0.0, SVG Export Plug-In . SVG Version: 6.00 Build 0)  -->
<svg version="1.1" id="Capa_1" xmlns="http://www.w3.org/2000/svg" xmlns:xlink="http://www.w3.org/1999/xlink" x="0px" y="0px"
	 viewBox="0 0 522.667 522.667" style="enable-background:new 0 0 522.667 522.667;" xml:space="preserve">
<g>
	<g>
		<path d="M490.62,64c-5.888,0-10.667,4.779-10.667,10.667V128H426.62c-5.888,0-10.667,4.779-10.667,10.667
			s4.779,10.667,10.667,10.667h64c5.909,0,10.667-4.779,10.667-10.667v-64C501.287,68.779,496.508,64,490.62,64z"/>
	</g>
</g>
<g>
	<g>
		<path d="M323.132,10.091C298.002,3.392,271.804,0,245.287,0C173.906,0,121.212,15.317,88.7,45.525
			c-4.309,4.011-4.565,10.752-0.555,15.061C90.236,62.848,93.095,64,95.954,64c2.603,0,5.205-0.939,7.232-2.837
			c28.437-26.411,76.245-39.808,142.08-39.808c24.683,0,49.024,3.136,72.384,9.365c5.675,1.493,11.541-1.856,13.056-7.573
			C332.22,17.451,328.828,11.605,323.132,10.091z"/>
	</g>
</g>
<g>
	<g>
		<path d="M499.559,132.8c-0.576-0.875-14.656-22.165-42.155-47.573c-4.352-4.011-11.072-3.733-15.083,0.597
			c-3.989,4.331-3.733,11.072,0.597,15.083c25.429,23.509,38.677,43.435,38.805,43.627c2.048,3.115,5.44,4.8,8.917,4.8
			c2.005,0,4.032-0.576,5.845-1.771C501.415,144.32,502.78,137.728,499.559,132.8z"/>
	</g>
</g>
<g>
	<g>
		<path d="M455.122,312.64c-7.189-7.189-16.235-11.819-26.048-13.483c12.629-18.816,10.645-44.587-5.952-61.184
			c-6.933-6.955-15.616-11.52-25.024-13.312c17.195-18.965,16.64-48.384-1.643-66.688c-6.912-6.912-15.573-11.477-24.96-13.291
			l35.819-35.819c13.824-13.824,21.696-28.032,23.424-42.261c1.685-13.824-2.859-26.923-12.757-36.821
			c-18.261-18.261-50.155-18.261-68.416,0L172.882,206.464l-57.195-100.651c-13.931-26.091-45.397-38.123-73.28-28.032
			c-16.448,6.016-25.045,24.235-19.221,40.725l50.368,165.269c7.659,25.088,11.541,51.115,11.541,77.376
			c0,31.339,12.203,60.8,34.368,82.965l37.717,37.717c26.347,26.325,61.355,40.832,98.603,40.832
			c37.227,0,72.235-14.507,98.56-40.832l100.779-100.779C473.98,362.197,473.98,331.499,455.122,312.64z M440.06,365.973
			L339.282,466.752c-22.293,22.293-51.947,34.581-83.499,34.581s-61.205-12.288-83.52-34.581l-37.717-37.717
			c-18.133-18.133-28.117-42.24-28.117-67.883c0-28.373-4.181-56.491-12.459-83.605L43.516,112.043
			c-0.064-0.171-0.107-0.363-0.171-0.512c-2.005-5.547,0.853-11.691,6.379-13.696c4.267-1.536,8.661-2.283,13.013-2.283
			c13.909,0,27.328,7.573,34.24,20.523l64.256,113.067c1.643,2.901,4.544,4.864,7.851,5.312c3.285,0.448,6.613-0.683,8.96-3.029
			L364.626,44.843c10.539-10.539,27.712-10.539,38.251,0c11.989,11.989,8,30.251-10.667,48.917L269.543,216.427
			c-2.069,2.091-3.115,4.821-3.115,7.552c0,2.731,1.024,5.461,3.115,7.552c4.16,4.16,10.923,4.16,15.083,0l58.56-58.56
			c10.197-10.155,27.968-10.133,38.187,0.064c10.539,10.539,10.539,27.712,0,38.251l-58.475,58.475
			c-2.069,2.091-3.115,4.821-3.115,7.552s1.024,5.461,3.115,7.552c4.16,4.16,10.923,4.16,15.083,0l31.872-31.872
			c10.197-10.176,27.989-10.155,38.208,0.043c10.539,10.539,10.539,27.712,0,38.251l-31.808,31.808
			c-2.069,2.091-3.115,4.821-3.115,7.552c0,2.731,1.024,5.461,3.115,7.552c4.16,4.16,10.923,4.16,15.083,0l10.539-10.539
			c10.197-10.155,27.968-10.133,38.187,0.064C450.599,338.261,450.599,355.435,440.06,365.973z"/>
	</g>
</g>
<g>
</g>
<g>
</g>
<g>
</g>
<g>
</g>
<g>
</g>
<g>
</g>
<g>
</g>
<g>
</g>
<g>
</g>
<g>
</g>
<g>
</g>
<g>
</g>
<g>
</g>
<g>
</g>
<g>
</g>
</svg>
