<?xml version="1.0" encoding="iso-8859-1"?>
<!-- Generator: Adobe Illustrator 19.0.0, SVG Export Plug-In . SVG Version: 6.00 Build 0)  -->
<svg version="1.1" id="Capa_1" xmlns="http://www.w3.org/2000/svg" xmlns:xlink="http://www.w3.org/1999/xlink" x="0px" y="0px"
	 viewBox="0 0 512 512" style="enable-background:new 0 0 512 512;" xml:space="preserve">
<g>
	<g>
		<path d="M96.003,0c-5.888,0-10.667,4.779-10.667,10.667v170.667c0,5.888,4.779,10.667,10.667,10.667s10.667-4.779,10.667-10.667
			V10.667C106.669,4.779,101.891,0,96.003,0z"/>
	</g>
</g>
<g>
	<g>
		<path d="M146.2,131.136c-4.16-4.16-10.923-4.16-15.083,0l-35.115,35.115l-35.136-35.115c-4.16-4.16-10.923-4.16-15.083,0
			c-4.16,4.16-4.16,10.923,0,15.083l42.667,42.667c2.091,2.069,4.821,3.115,7.552,3.115s5.461-1.045,7.531-3.115l42.667-42.667
			C150.36,142.059,150.36,135.296,146.2,131.136z"/>
	</g>
</g>
<g>
	<g>
		<path d="M426.669,234.667c-8.768,0-16.939,2.667-23.723,7.211c-5.845-16.597-21.696-28.544-40.277-28.544
			c-7.765,0-15.061,2.091-21.333,5.739V106.667C341.336,83.136,322.2,64,298.669,64c-18.581,0-34.432,11.947-40.277,28.544
			c-6.784-4.544-14.955-7.211-23.723-7.211c-23.531,0-42.667,19.136-42.667,42.667v181.333l-37.077-27.797
			c-21.973-16.491-53.248-14.293-72.725,5.163c-12.48,12.48-12.48,32.768,0,45.248l151.915,151.936
			C252.248,502.016,276.376,512,302.019,512h49.984c64.683,0,117.333-52.629,117.333-117.333V277.333
			C469.336,253.803,450.2,234.667,426.669,234.667z M448.003,394.667c0,52.928-43.072,96-96,96h-49.984
			c-19.947,0-38.699-7.765-52.821-21.867L97.283,316.864c-4.16-4.16-4.16-10.923,0-15.083c6.613-6.592,15.445-9.984,24.32-9.984
			c7.211,0,14.464,2.24,20.544,6.805l54.123,40.597c3.243,2.432,7.595,2.816,11.179,1.003c3.605-1.813,5.888-5.504,5.888-9.536V128
			c0-11.755,9.557-21.333,21.333-21.333s21.333,9.579,21.333,21.333v160c0,5.888,4.779,10.667,10.667,10.667
			s10.667-4.779,10.667-10.667V106.667c0-11.755,9.557-21.333,21.333-21.333s21.333,9.579,21.333,21.333V288
			c0,5.888,4.779,10.667,10.667,10.667s10.667-4.779,10.667-10.667v-32c0-11.755,9.557-21.333,21.333-21.333
			s21.333,9.579,21.333,21.333v32c0,5.888,4.779,10.667,10.667,10.667s10.667-4.779,10.667-10.667v-10.667
			c0-11.755,9.557-21.333,21.333-21.333s21.333,9.579,21.333,21.333V394.667z"/>
	</g>
</g>
<g>
</g>
<g>
</g>
<g>
</g>
<g>
</g>
<g>
</g>
<g>
</g>
<g>
</g>
<g>
</g>
<g>
</g>
<g>
</g>
<g>
</g>
<g>
</g>
<g>
</g>
<g>
</g>
<g>
</g>
</svg>
