<?xml version="1.0" encoding="iso-8859-1"?>
<!-- Generator: Adobe Illustrator 19.0.0, SVG Export Plug-In . SVG Version: 6.00 Build 0)  -->
<svg version="1.1" id="Capa_1" xmlns="http://www.w3.org/2000/svg" xmlns:xlink="http://www.w3.org/1999/xlink" x="0px" y="0px"
	 viewBox="0 0 511.984 511.984" style="enable-background:new 0 0 511.984 511.984;" xml:space="preserve">
<g>
	<g>
		<path d="M36.408,53.317l35.115-35.115c4.16-4.16,4.16-10.923,0-15.083c-4.16-4.16-10.923-4.16-15.083,0L13.773,45.787
			c-4.16,4.16-4.16,10.923,0,15.083l42.667,42.667c2.091,2.069,4.821,3.115,7.552,3.115s5.461-1.045,7.531-3.136
			c4.16-4.16,4.16-10.923,0-15.083L36.408,53.317z"/>
	</g>
</g>
<g>
	<g>
		<path d="M498.211,45.787L455.544,3.12c-4.16-4.16-10.923-4.16-15.083,0c-4.16,4.16-4.16,10.923,0,15.083l35.115,35.115
			L440.44,88.453c-4.16,4.16-4.16,10.923,0,15.083c2.091,2.069,4.821,3.115,7.552,3.115c2.731,0,5.461-1.045,7.552-3.115
			l42.667-42.667C502.371,56.709,502.371,49.947,498.211,45.787z"/>
	</g>
</g>
<g>
	<g>
		<path d="M490.659,42.651h-128c-5.888,0-10.667,4.779-10.667,10.667s4.779,10.667,10.667,10.667h128
			c5.888,0,10.667-4.779,10.667-10.667S496.547,42.651,490.659,42.651z"/>
	</g>
</g>
<g>
	<g>
		<path d="M149.325,42.651h-128c-5.888,0-10.667,4.779-10.667,10.667s4.779,10.667,10.667,10.667h128
			c5.888,0,10.667-4.779,10.667-10.667S155.213,42.651,149.325,42.651z"/>
	</g>
</g>
<g>
	<g>
		<path d="M415.992,234.651c-8.768,0-16.939,2.667-23.723,7.211c-5.845-16.597-21.696-28.544-40.277-28.544
			c-7.765,0-15.061,2.091-21.333,5.739V106.651c0-23.531-19.136-42.667-42.667-42.667c-18.581,0-34.432,11.947-40.277,28.544
			c-6.784-4.544-14.933-7.211-23.723-7.211c-23.531,0-42.667,19.136-42.667,42.667v181.333l-37.077-27.797
			c-21.995-16.491-53.269-14.293-72.725,5.163c-12.48,12.48-12.48,32.768,0,45.248l151.936,151.936
			c18.133,18.133,42.24,28.117,67.883,28.117h49.984c64.704,0,117.333-52.629,117.333-117.333V277.317
			C458.659,253.787,439.523,234.651,415.992,234.651z M437.325,394.651c0,52.928-43.072,96-96,96h-49.984
			c-19.947,0-38.699-7.765-52.779-21.867L86.627,316.848c-4.16-4.16-4.16-10.923,0-15.083c6.613-6.613,15.424-9.984,24.299-9.984
			c7.211,0,14.443,2.24,20.544,6.805l54.123,40.597c3.221,2.432,7.573,2.816,11.179,1.003c3.605-1.813,5.888-5.504,5.888-9.536
			V127.984c0-11.755,9.579-21.333,21.333-21.333s21.333,9.579,21.333,21.333v160c0,5.888,4.779,10.667,10.667,10.667
			s10.667-4.779,10.667-10.667V106.651c0-11.755,9.579-21.333,21.333-21.333s21.333,9.579,21.333,21.333v181.333
			c0,5.888,4.779,10.667,10.667,10.667s10.667-4.779,10.667-10.667v-32c0-11.755,9.579-21.333,21.333-21.333
			s21.333,9.579,21.333,21.333v32c0,5.888,4.779,10.667,10.667,10.667c5.888,0,10.667-4.779,10.667-10.667v-10.667
			c0-11.755,9.579-21.333,21.333-21.333c11.755,0,21.333,9.579,21.333,21.333V394.651z"/>
	</g>
</g>
<g>
</g>
<g>
</g>
<g>
</g>
<g>
</g>
<g>
</g>
<g>
</g>
<g>
</g>
<g>
</g>
<g>
</g>
<g>
</g>
<g>
</g>
<g>
</g>
<g>
</g>
<g>
</g>
<g>
</g>
</svg>
