<?xml version="1.0" encoding="iso-8859-1"?>
<!-- Generator: Adobe Illustrator 19.0.0, SVG Export Plug-In . SVG Version: 6.00 Build 0)  -->
<svg version="1.1" id="Capa_1" xmlns="http://www.w3.org/2000/svg" xmlns:xlink="http://www.w3.org/1999/xlink" x="0px" y="0px"
	 viewBox="0 0 469.333 469.333" style="enable-background:new 0 0 469.333 469.333;" xml:space="preserve">
<g>
	<g>
		<path d="M438.656,239.488L278.592,71.531c-15.403-15.424-42.112-15.509-57.749,0.128c-4.949,4.971-8.363,10.923-10.219,17.216
			l-5.76-5.76c-15.872-15.851-41.707-15.893-57.749,0.128c-5.483,5.504-9.088,12.203-10.795,19.285
			c-15.403-8.043-34.88-5.589-47.872,7.403c-14.571,14.571-15.765,37.504-3.627,53.461c-6.507,1.856-12.651,5.333-17.771,10.475
			c-15.893,15.872-15.893,41.728,0,57.621l145.237,145.237l-86.101,13.525c-23.296,3.328-40.853,23.552-40.853,47.083
			c0,17.643,14.357,32,32,32h201.152c31.317,0,60.779-12.203,82.987-34.368l33.536-33.557
			c22.144-22.123,34.325-51.563,34.325-82.859C469.333,289.323,458.496,261.312,438.656,239.488z M419.925,386.325l-33.536,33.557
			C368.235,438.016,344.107,448,318.485,448H117.333c-5.867,0-10.667-4.779-10.667-10.667c0-12.971,9.685-24.128,22.656-26.005
			l106.987-16.811c3.968-0.619,7.232-3.413,8.491-7.232c1.237-3.797,0.235-8-2.603-10.837L82.133,216.384
			c-7.552-7.573-7.552-19.883,0.128-27.584c3.797-3.776,8.768-5.675,13.739-5.675c4.971,0,9.941,1.899,13.739,5.696l106.731,106.731
			c4.16,4.16,10.923,4.16,15.083,0c2.069-2.091,3.115-4.821,3.115-7.552c0-2.731-1.045-5.461-3.115-7.531l-128-128
			C96,144.896,96,132.587,103.68,124.885c7.573-7.552,19.883-7.552,27.456,0l128,128c4.16,4.16,10.923,4.16,15.083,0
			c2.069-2.091,3.115-4.821,3.115-7.552c0-2.731-1.045-5.461-3.136-7.531l-112-112c-7.552-7.573-7.552-19.883,0.128-27.584
			c7.573-7.552,19.883-7.552,27.456,0l30.571,30.549c0.149,0.171,0.341,0.341,0.512,0.512l80.96,80.939
			c4.16,4.16,10.923,4.16,15.083,0c4.16-4.16,4.16-10.923,0-15.083l-81.301-81.301c-7.189-7.595-7.061-19.648,0.491-27.221
			c7.317-7.275,20.288-7.125,27.243-0.171L423.04,254.037c16.107,17.707,24.96,40.597,24.96,64.512
			C448,344.128,438.016,368.213,419.925,386.325z"/>
	</g>
</g>
<g>
	<g>
		<path d="M245.333,0c-21.781,0-42.965,7.616-60.139,21.568c-1.28-0.149-2.539-0.235-3.861-0.235
			c-21.781,0-42.965,7.616-60.139,21.568c-1.28-0.149-2.539-0.235-3.861-0.235c-52.928,0-96,43.072-96,96
			c0,1.323,0.107,2.603,0.256,3.861C7.616,159.701,0,180.885,0,202.667c0,52.928,43.072,96,96,96
			c5.888,0,10.667-4.779,10.667-10.667S101.888,277.333,96,277.333c-41.173,0-74.667-33.493-74.667-74.667
			c0-18.133,6.869-35.776,19.328-49.664c1.963-2.176,2.944-5.099,2.709-8.021l-0.384-3.243c-0.149-1.024-0.32-2.027-0.32-3.072
			C42.667,97.493,76.16,64,117.333,64c1.067,0,2.069,0.171,3.072,0.32l3.221,0.363c2.944,0.256,5.845-0.704,8.043-2.688
			c13.888-12.459,31.531-19.328,49.664-19.328c1.067,0,2.069,0.171,3.072,0.32l3.221,0.363c2.88,0.235,5.845-0.704,8.043-2.688
			c13.888-12.459,31.531-19.328,49.664-19.328C286.507,21.333,320,54.827,320,96c0,5.888,4.779,10.667,10.667,10.667
			c5.888,0,10.667-4.779,10.667-10.667C341.333,43.072,298.261,0,245.333,0z"/>
	</g>
</g>
<g>
</g>
<g>
</g>
<g>
</g>
<g>
</g>
<g>
</g>
<g>
</g>
<g>
</g>
<g>
</g>
<g>
</g>
<g>
</g>
<g>
</g>
<g>
</g>
<g>
</g>
<g>
</g>
<g>
</g>
</svg>
