<?xml version="1.0" encoding="iso-8859-1"?>
<!-- Generator: Adobe Illustrator 19.0.0, SVG Export Plug-In . SVG Version: 6.00 Build 0)  -->
<svg version="1.1" id="Capa_1" xmlns="http://www.w3.org/2000/svg" xmlns:xlink="http://www.w3.org/1999/xlink" x="0px" y="0px"
	 viewBox="0 0 469.355 469.355" style="enable-background:new 0 0 469.355 469.355;" xml:space="preserve">
<g>
	<g>
		<path d="M438.848,218.357l-80.213-88.149c-15.872-15.872-41.728-15.893-57.749,0.128c-5.077,5.077-8.533,11.157-10.325,17.643
			c-15.957-12.224-38.976-11.008-53.675,3.691c-4.971,4.971-8.384,10.923-10.24,17.216L146.219,88.48
			c-15.872-15.872-41.728-15.893-57.749,0.128c-14.571,14.571-15.787,37.504-3.627,53.461c-6.507,1.856-12.651,5.333-17.771,10.475
			c-15.893,15.872-15.893,41.728,0,57.621l145.237,145.237l-86.144,13.525c-23.275,3.328-40.832,23.552-40.832,47.083
			c0,17.643,14.357,32,32,32h201.152c31.339,0,60.8-12.203,82.987-34.368l33.557-33.557c22.144-22.123,34.325-51.563,34.325-82.859
			C469.355,268,458.517,239.989,438.848,218.357z M419.925,365.003l-33.557,33.557c-18.133,18.133-42.24,28.117-67.883,28.117
			H117.333c-5.888,0-10.667-4.779-10.667-10.667c0-12.971,9.685-24.128,22.656-26.005l106.987-16.811
			c3.968-0.619,7.232-3.413,8.491-7.232c1.237-3.797,0.235-8-2.603-10.837L82.133,195.061c-7.573-7.573-7.573-19.883,0.128-27.584
			c3.797-3.776,8.768-5.675,13.739-5.675c4.971,0,9.941,1.899,13.739,5.696l106.731,106.731c4.16,4.16,10.923,4.16,15.083,0
			c2.069-2.091,3.115-4.821,3.115-7.552s-1.045-5.461-3.115-7.552l-128-128c-7.573-7.552-7.573-19.883,0.128-27.563
			c7.552-7.552,19.904-7.552,27.456,0l128,128c4.16,4.16,10.923,4.16,15.083,0c2.069-2.091,3.115-4.821,3.115-7.552
			c0-2.731-1.045-5.461-3.136-7.552l-22.251-22.251c-7.573-7.573-7.573-19.883,0.128-27.584c7.552-7.552,19.904-7.552,27.456,0
			l22.336,22.357c0.021,0.021,0.021,0.021,0.021,0.021c0,0.021,0.021,0.021,0.021,0.021c0.021,0.021,0.021,0.021,0.021,0.021
			c0.021,0,0.021,0,0.021,0c0,0.021,0.021,0.021,0.021,0.021h0.021l0.021,0.021c4.181,3.968,10.773,3.883,14.869-0.213
			c4.16-4.16,4.16-10.923,0-15.083l-0.917-0.917c-3.669-3.669-5.696-8.555-5.696-13.739s2.005-10.048,5.803-13.845
			c7.573-7.552,19.904-7.531,27.115-0.363l79.872,87.787C439.125,250.4,448,273.312,448,297.227
			C448,322.827,438.037,346.891,419.925,365.003z"/>
	</g>
</g>
<g>
	<g>
		<path d="M117.333,21.344c-52.928,0-96,43.072-96,96c0,1.323,0.085,2.603,0.235,3.861C7.616,138.379,0,159.563,0,181.344
			c0,52.928,43.072,96,96,96c5.888,0,10.667-4.779,10.667-10.667S101.888,256.011,96,256.011c-41.173,0-74.667-33.493-74.667-74.667
			c0-18.155,6.869-35.776,19.328-49.664c1.984-2.176,2.944-5.099,2.688-8.021l-0.384-3.243c-0.128-1.024-0.299-2.027-0.299-3.072
			c0-41.173,33.493-74.667,74.667-74.667S192,76.171,192,117.344c0,5.888,4.779,10.667,10.667,10.667s10.667-4.779,10.667-10.667
			C213.333,64.416,170.261,21.344,117.333,21.344z"/>
	</g>
</g>
<g>
</g>
<g>
</g>
<g>
</g>
<g>
</g>
<g>
</g>
<g>
</g>
<g>
</g>
<g>
</g>
<g>
</g>
<g>
</g>
<g>
</g>
<g>
</g>
<g>
</g>
<g>
</g>
<g>
</g>
</svg>
