<?xml version="1.0" encoding="iso-8859-1"?>
<!-- Generator: Adobe Illustrator 19.0.0, SVG Export Plug-In . SVG Version: 6.00 Build 0)  -->
<svg version="1.1" id="Capa_1" xmlns="http://www.w3.org/2000/svg" xmlns:xlink="http://www.w3.org/1999/xlink" x="0px" y="0px"
	 viewBox="0 0 512.012 512.012" style="enable-background:new 0 0 512.012 512.012;" xml:space="preserve">
<g>
	<g>
		<path d="M234.706,73.712c0-0.1,0-0.1,0-0.2c0-0.1,0-0.2,0-0.3c0-0.1-0.1-0.3-0.1-0.4c0-0.1,0-0.2-0.1-0.3c0-0.2-0.1-0.4-0.1-0.6
			s-0.1-0.3-0.1-0.5c0-0.1-0.1-0.3-0.1-0.4c-0.6-1.8-1.8-3.5-3.4-4.8l-53.3-42.7c-4.6-3.6-11.3-2.9-15,1.7c-3.7,4.6-2.9,11.3,1.7,15
			l33.6,26.9l-145.8,18.2c-5.8,0.7-10,6.1-9.3,11.9c0.7,5.4,5.3,9.3,10.6,9.3c0.5,0,0.9,0,1.4-0.1l148.9-18.5l-20.8,34.5
			c-3,5.1-1.4,11.6,3.7,14.7c1.7,1,3.6,1.5,5.5,1.5c3.6,0,7.1-1.9,9.2-5.2l31.8-53C234.306,78.512,234.906,76.212,234.706,73.712z"
			/>
	</g>
</g>
<g>
	<g>
		<path d="M469.306,41.312c-0.7-5.9-6.1-10.1-11.8-9.3l-159.8,18.8l20.8-34.7c3-5.1,1.4-11.6-3.7-14.6c-5-3-11.6-1.4-14.6,3.6
			l-32,53.3c-2,3.3-2,7.2-0.3,10.5c0,0,0,0,0,0.1c0.1,0.3,0.3,0.5,0.4,0.8v0.1c0.2,0.2,0.3,0.5,0.5,0.7c0,0,0,0,0,0.1
			c0.2,0.2,0.4,0.5,0.6,0.7c0.1,0.1,0.1,0.1,0.2,0.2l42.7,42.7c2.1,2.1,4.8,3.1,7.6,3.1c2.8,0,5.5-1,7.6-3.1
			c4.2-4.2,4.2-10.9,0-15.1l-27-27.3l159.5-18.8C465.806,52.512,470.006,47.212,469.306,41.312z"/>
	</g>
</g>
<g>
	<g>
		<path d="M428.706,343.612c-5-5.1-11-8.7-17.6-10.6c12.1-16,10.9-38.9-3.8-53.6c-4.9-5-11-8.5-17.6-10.4
			c12.1-16,10.9-38.9-3.8-53.6c-4.9-4.9-10.8-8.4-17.2-10.3l37.8-37.8c15.9-15.9,15.9-41.7-0.1-57.7c-15.9-15.9-41.7-15.9-57.6,0
			l-145.2,145.3l-13.5-86.1c-3.3-23.3-23.5-40.9-47.1-40.9c-17.6,0-32,14.4-32,32v201.2c0,31.4,12.2,60.8,34.4,83l33.5,33.6
			c22.1,22.1,51.6,34.3,82.9,34.3c29.2,0,57.3-10.8,78.9-30.5l88.1-80.2C444.706,385.412,444.706,359.612,428.706,343.612z
			 M414.106,385.812l-87.8,79.9c-17.7,16.1-40.6,24.9-64.5,24.9c-25.6,0-49.7-10-67.8-28.1l-33.5-33.6
			c-18.1-18.1-28.1-42.2-28.1-67.9v-201.1c0-5.9,4.8-10.7,10.7-10.7c13,0,24.1,9.7,26,22.7l16.8,107c0.6,4,3.4,7.2,7.2,8.5
			c3.8,1.3,8,0.2,10.9-2.6l160.1-160.1c7.6-7.6,19.9-7.6,27.6,0.1c7.6,7.6,7.6,19.9,0,27.5l-106.9,106.7c-4.2,4.2-4.2,10.9,0,15.1
			c4.2,4.2,10.9,4.2,15.1,0l43.6-43.6c7.3-7.3,20-7.4,27.6,0.1c7.6,7.6,7.6,19.9,0,27.5l-38.2,38.1l-5.4,5.4
			c-4.2,4.2-4.2,10.9,0,15.1s10.9,4.2,15.1,0l5.4-5.4l16.8-16.8c7.3-7.3,20-7.4,27.6,0.1c7.6,7.6,7.6,19.9,0,27.5l-16.9,16.8
			l-5.3,5.3l-0.1,0.1c-4.2,4.2-4.2,10.9,0,15.1s10.9,4.2,15.1,0l0.9-0.9c7.4-7.3,20-7.4,27.6,0.1
			C421.306,366.212,421.306,378.512,414.106,385.812z"/>
	</g>
</g>
<g>
</g>
<g>
</g>
<g>
</g>
<g>
</g>
<g>
</g>
<g>
</g>
<g>
</g>
<g>
</g>
<g>
</g>
<g>
</g>
<g>
</g>
<g>
</g>
<g>
</g>
<g>
</g>
<g>
</g>
</svg>
