<?xml version="1.0" encoding="iso-8859-1"?>
<!-- Generator: Adobe Illustrator 19.0.0, SVG Export Plug-In . SVG Version: 6.00 Build 0)  -->
<svg version="1.1" id="Capa_1" xmlns="http://www.w3.org/2000/svg" xmlns:xlink="http://www.w3.org/1999/xlink" x="0px" y="0px"
	 viewBox="0 0 512.25 512.25" style="enable-background:new 0 0 512.25 512.25;" xml:space="preserve">
<g>
	<g>
		<path d="M202.71,84.15c-0.7-5.9-6.2-9.9-11.9-9.3l-148.9,18.7l20.7-34.5c3-5.1,1.4-11.6-3.7-14.6c-5-3-11.6-1.4-14.6,3.6l-32,53.3
			c-0.9,1.4-1.3,3-1.5,4.6c-0.1,1.1,0,2.1,0.2,3.1c0.1,0.3,0.1,0.6,0.2,0.8c0,0.1,0.1,0.2,0.1,0.2c0.1,0.2,0.1,0.4,0.2,0.6
			c0,0.1,0.1,0.2,0.1,0.3c0.1,0.2,0.2,0.4,0.3,0.6c0,0.1,0.1,0.2,0.1,0.3c0.1,0.2,0.2,0.4,0.3,0.6c0,0.1,0.1,0.1,0.1,0.2
			c0.1,0.2,0.3,0.4,0.5,0.6c0,0,0,0,0.1,0.1c0.2,0.3,0.5,0.6,0.8,0.9l42.7,42.7c2.1,2.1,4.8,3.1,7.6,3.1c2.8,0,5.5-1,7.6-3.1
			c4.2-4.2,4.2-10.9,0-15.1l-27.3-27.2l149-18.6C199.21,95.35,203.41,89.95,202.71,84.15z"/>
	</g>
</g>
<g>
	<g>
		<path d="M501.41,52.25c-0.1-0.9-0.3-1.7-0.7-2.6v-0.1c-0.1-0.2-0.2-0.5-0.3-0.7c-0.1-0.1-0.1-0.2-0.2-0.3
			c-0.1-0.2-0.2-0.3-0.3-0.5c-0.3-0.6-0.7-1.1-1.1-1.6l-0.1-0.1c-0.1-0.2-0.3-0.3-0.4-0.5l-42.7-42.7c-4.2-4.2-10.9-4.2-15.1,0
			c-4.2,4.2-4.2,10.9,0,15.1l27.1,27.1l-159.5,18.8c-5.9,0.7-10,6-9.3,11.8c0.6,5.4,5.2,9.4,10.6,9.4c0.4,0,0.9,0,1.3-0.1
			l159.7-18.8l-20.8,34.7c-3,5.1-1.4,11.6,3.7,14.6c1.7,1,3.6,1.5,5.5,1.5c3.6,0,7.1-1.8,9.1-5.2l31.7-52.8
			C501.01,57.45,501.71,54.95,501.41,52.25z"/>
	</g>
</g>
<g>
	<g>
		<path d="M413.81,343.85c-5-5.1-11-8.7-17.6-10.6c12.1-16,10.9-38.9-3.8-53.6c-4.9-5-11-8.5-17.6-10.4c12.1-16,10.9-38.9-3.8-53.6
			c-4.9-4.9-10.8-8.4-17.2-10.3l37.8-37.8c15.9-15.9,15.9-41.7-0.1-57.7c-15.9-15.9-41.7-15.9-57.6,0l-145.2,145.3l-13.5-86.1
			c-3.3-23.3-23.5-40.9-47.1-40.9c-17.6,0-32,14.4-32,32v201.2c0,31.4,12.2,60.8,34.4,83l33.5,33.6c22.1,22.1,51.6,34.3,82.9,34.3
			c29.2,0,57.3-10.8,78.9-30.5l88.1-80.2C429.81,385.65,429.81,359.85,413.81,343.85z M399.21,386.05l-87.8,79.9
			c-17.7,16.1-40.6,24.9-64.5,24.9c-25.6,0-49.7-10-67.8-28.1l-33.5-33.6c-18.1-18.1-28.1-42.2-28.1-67.9v-201.1
			c0-5.9,4.8-10.7,10.7-10.7c13,0,24.1,9.7,26,22.7l16.8,107c0.6,4,3.4,7.2,7.2,8.5c3.8,1.3,8,0.2,10.9-2.6l160.1-160.1
			c7.6-7.6,19.9-7.6,27.6,0.1c7.6,7.6,7.6,19.9,0,27.5l-106.9,106.7c-4.2,4.2-4.2,10.9,0,15.1c4.2,4.2,10.9,4.2,15.1,0l43.6-43.6
			c7.3-7.3,20-7.4,27.6,0.1c7.6,7.6,7.6,19.9,0,27.5l-38.2,38.1l-5.4,5.4c-4.2,4.2-4.2,10.9,0,15.1s10.9,4.2,15.1,0l5.4-5.4
			l16.8-16.8c7.3-7.3,20-7.4,27.6,0.1c7.6,7.6,7.6,19.9,0,27.5l-16.9,16.8l-5.3,5.3l-0.1,0.1c-4.2,4.2-4.2,10.9,0,15.1
			s10.9,4.2,15.1,0l0.9-0.9c7.4-7.3,20-7.4,27.6,0.1C406.41,366.45,406.41,378.75,399.21,386.05z"/>
	</g>
</g>
<g>
</g>
<g>
</g>
<g>
</g>
<g>
</g>
<g>
</g>
<g>
</g>
<g>
</g>
<g>
</g>
<g>
</g>
<g>
</g>
<g>
</g>
<g>
</g>
<g>
</g>
<g>
</g>
<g>
</g>
</svg>
