<?xml version="1.0" encoding="UTF-8" standalone="no"?>
<svg
   xmlns:dc="http://purl.org/dc/elements/1.1/"
   xmlns:cc="http://creativecommons.org/ns#"
   xmlns:rdf="http://www.w3.org/1999/02/22-rdf-syntax-ns#"
   xmlns:svg="http://www.w3.org/2000/svg"
   xmlns="http://www.w3.org/2000/svg"
   xmlns:sodipodi="http://sodipodi.sourceforge.net/DTD/sodipodi-0.dtd"
   xmlns:inkscape="http://www.inkscape.org/namespaces/inkscape"
   inkscape:version="1.0 (4035a4fb49, 2020-05-01)"
   sodipodi:docname="logo-black.svg"
   xml:space="preserve"
   style="enable-background:new 0 0 34 34;"
   viewBox="0 0 34 34"
   y="0px"
   x="0px"
   id="Layer_1"
   version="1.1"><metadata
   id="metadata21"><rdf:RDF><cc:Work
       rdf:about=""><dc:format>image/svg+xml</dc:format><dc:type
         rdf:resource="http://purl.org/dc/dcmitype/StillImage" /></cc:Work></rdf:RDF></metadata><defs
   id="defs19" /><sodipodi:namedview
   inkscape:document-rotation="0"
   inkscape:current-layer="Layer_1"
   inkscape:window-maximized="1"
   inkscape:window-y="0"
   inkscape:window-x="0"
   inkscape:cy="17"
   inkscape:cx="17"
   inkscape:zoom="6.9411765"
   showgrid="false"
   id="namedview17"
   inkscape:window-height="1047"
   inkscape:window-width="1920"
   inkscape:pageshadow="2"
   inkscape:pageopacity="0"
   guidetolerance="10"
   gridtolerance="10"
   objecttolerance="10"
   borderopacity="1"
   bordercolor="#666666"
   pagecolor="#ffffff" />
<style
   id="style2"
   type="text/css">
	.st0{fill:#FFFFFF;}
</style>
<g
   id="g14">
	<g
   id="g12">
		<path
   style="fill:#000000"
   inkscape:connector-curvature="0"
   id="path4"
   d="m 18,0 v 11.2 c 0,2.6 2.1,4.8 4.8,4.8 H 34 C 26.4,13.6 20.4,7.6 18,0 Z"
   class="st0" />
		<path
   style="fill:#000000"
   inkscape:connector-curvature="0"
   id="path6"
   d="M 18,34 V 22.5 C 18,20 20,18 22.5,18 H 34 c -7.6,2.4 -13.6,8.4 -16,16 z"
   class="st0" />
		<path
   style="fill:#000000"
   inkscape:connector-curvature="0"
   id="path8"
   d="M 16,0 V 11.5 C 16,14 14,16 11.5,16 H 0 C 7.6,13.6 13.6,7.6 16,0 Z"
   class="st0" />
		<path
   style="fill:#000000"
   inkscape:connector-curvature="0"
   id="path10"
   d="M 16,34 V 22.5 C 16,20 14,18 11.5,18 H 0 c 7.6,2.4 13.6,8.4 16,16 z"
   class="st0" />
	</g>
</g>
</svg>
