<svg id="Capa_1" enable-background="new 0 0 512 512" height="512" viewBox="0 0 512 512" width="512" xmlns="http://www.w3.org/2000/svg"><g><g><path d="m502.587 281.387-28.64-9.526c-6.755-2.247-11.242-8.59-11.237-15.709 0-.05 0-.101 0-.151s0-.101 0-.151c-.006-7.119 4.481-13.463 11.237-15.709l28.64-9.526c4.822-1.604 7.74-6.499 6.858-11.504l-2.667-15.127c-.882-5.004-5.299-8.606-10.379-8.464l-30.127.843c-7.128.199-13.508-4.246-15.942-10.949-.03-.083-.06-.166-.091-.249-2.443-6.7-.415-14.207 5.174-18.637l23.62-18.72c3.983-3.156 5.051-8.754 2.51-13.155l-7.68-13.303c-2.541-4.401-7.923-6.275-12.648-4.404l-28.065 11.113c-6.624 2.623-14.134.633-18.715-4.823-.052-.061-.103-.123-.155-.184-4.595-5.46-5.259-13.214-1.52-19.292l15.817-25.708c2.663-4.328 1.752-9.954-2.141-13.221l-11.767-9.874c-3.893-3.266-9.591-3.187-13.391.187l-22.554 20.026c-5.337 4.739-13.091 5.43-19.266 1.851-.073-.042-.146-.085-.219-.127-6.168-3.564-9.431-10.614-7.998-17.592l6.066-29.545c1.022-4.978-1.758-9.953-6.533-11.691l-14.434-5.254c-4.775-1.738-10.103.286-12.52 4.756l-14.344 26.53c-3.388 6.266-10.417 9.567-17.433 8.336-.083-.015-.166-.029-.249-.044-7.033-1.225-12.529-6.74-13.572-13.802l-4.405-29.838c-.741-5.026-5.055-8.75-10.137-8.75h-15.361c-5.082 0-9.396 3.724-10.138 8.751l-4.405 29.838c-1.043 7.062-6.539 12.577-13.572 13.802-.083.014-.166.029-.249.043-7.016 1.231-14.045-2.07-17.433-8.336l-14.344-26.531c-2.417-4.47-7.744-6.494-12.52-4.756l-14.434 5.254c-4.775 1.738-7.555 6.713-6.533 11.691l6.066 29.545c1.433 6.978-1.83 14.028-7.998 17.592-.073.042-.146.084-.219.127-6.176 3.579-13.929 2.888-19.266-1.851l-22.554-20.026c-3.8-3.374-9.498-3.454-13.391-.187l-11.766 9.874c-3.893 3.266-4.804 8.892-2.141 13.22l15.817 25.709c3.739 6.078 3.075 13.832-1.52 19.292-.052.061-.103.123-.155.184-4.581 5.456-12.091 7.446-18.715 4.823l-28.065-11.113c-4.725-1.871-10.107.003-12.648 4.404l-7.68 13.303c-2.541 4.401-1.473 9.999 2.51 13.155l23.62 18.72c5.589 4.43 7.617 11.937 5.174 18.637-.03.083-.06.166-.091.249-2.434 6.702-8.814 11.148-15.942 10.949l-30.127-.843c-5.08-.142-9.496 3.46-10.379 8.464l-2.666 15.127c-.882 5.004 2.036 9.9 6.858 11.503l28.64 9.526c6.755 2.247 11.242 8.59 11.237 15.71v.151s0 .101 0 .151c.006 7.119-4.481 13.463-11.237 15.71l-28.64 9.526c-4.822 1.604-7.74 6.499-6.858 11.503l2.667 15.127c.882 5.004 5.299 8.606 10.379 8.464l30.127-.843c7.128-.199 13.508 4.246 15.942 10.949.03.083.06.166.091.249 2.443 6.7.415 14.208-5.174 18.637l-23.62 18.719c-3.983 3.156-5.051 8.754-2.51 13.155l7.68 13.303c2.541 4.401 7.923 6.275 12.648 4.404l28.065-11.113c6.624-2.623 14.134-.633 18.715 4.823.052.061.103.123.155.184 4.595 5.46 5.259 13.214 1.52 19.292l-15.818 25.71c-2.663 4.328-1.752 9.954 2.141 13.22l11.767 9.874c3.893 3.266 9.591 3.187 13.391-.187l22.554-20.026c5.337-4.739 13.091-5.43 19.266-1.851 3.493 2.024 7.051 3.949 10.67 5.77l-8.519 41.493c-1.022 4.978 1.758 9.953 6.533 11.691l14.434 5.254c4.775 1.738 10.103-.286 12.52-4.756l14.344-26.53c3.388-6.266 10.417-9.567 17.433-8.336.083.015.166.029.249.044 7.033 1.225 12.529 6.74 13.572 13.802l4.405 29.838c.742 5.027 5.056 8.751 10.138 8.751h15.361c5.082 0 9.396-3.724 10.138-8.751l4.405-29.838c1.043-7.062 6.539-12.577 13.572-13.802.083-.014.166-.029.249-.043 7.016-1.231 14.045 2.07 17.433 8.336l14.344 26.53c2.417 4.47 7.745 6.494 12.52 4.756l14.434-5.254c4.775-1.738 7.555-6.713 6.533-11.691l-6.066-29.545c-1.433-6.978 1.83-14.028 7.998-17.592.073-.042.146-.084.219-.127 6.176-3.579 13.929-2.888 19.266 1.851l22.554 20.026c3.8 3.374 9.498 3.454 13.391.187l11.767-9.874c3.893-3.266 4.804-8.892 2.141-13.22l-15.817-25.708c-3.739-6.078-3.075-13.832 1.52-19.292.052-.061.103-.123.155-.184 4.581-5.456 12.091-7.446 18.715-4.823l28.065 11.113c4.725 1.871 10.107-.003 12.648-4.404l7.68-13.303c2.541-4.401 1.473-9.999-2.51-13.155l-23.62-18.719c-5.589-4.43-7.617-11.937-5.174-18.637.03-.083.06-.166.091-.249 2.434-6.702 8.814-11.148 15.942-10.949l30.127.843c5.08.142 9.496-3.46 10.379-8.464l2.668-15.127c.879-5.006-2.039-9.901-6.861-11.505z" fill="#b5b1a4"/><path d="m509.44 292.89-2.66 15.13c-.89 5-5.3 8.6-10.38 8.46l-30.13-.84c-7.13-.2-13.51 4.25-15.94 10.95-.03.08-.06.16-.09.25-2.44 6.7-.42 14.2 5.17 18.63l23.62 18.72c3.99 3.16 5.05 8.76 2.51 13.16l-7.68 13.3c-2.54 4.4-7.92 6.28-12.65 4.41l-28.06-11.12c-6.62-2.62-14.13-.63-18.71 4.83-.06.06-.11.12-.16.18-4.59 5.46-5.26 13.21-1.52 19.29l15.82 25.71c2.66 4.33 1.75 9.95-2.14 13.22l-11.77 9.87c-3.89 3.27-9.59 3.19-13.39-.18l-22.55-20.03c-5.34-4.74-13.1-5.43-19.27-1.85-.07.04-.15.08-.22.13-6.17 3.56-9.43 10.61-8 17.59l6.07 29.54c1.02 4.98-1.76 9.96-6.54 11.69l-14.43 5.26c-4.78 1.74-10.1-.29-12.52-4.76l-14.34-26.53c-3.39-6.26-10.42-9.57-17.44-8.33-.08.01-.16.02-.25.04-7.03 1.22-12.52 6.74-13.57 13.8l-4.4 29.84c-.74 5.03-5.06 8.75-10.14 8.75h-15.36c-5.08 0-9.4-3.72-10.14-8.75l-4.4-29.84c-1.05-7.06-6.54-12.58-13.57-13.8-.09-.02-.17-.03-.25-.04-7.02-1.24-14.05 2.07-17.44 8.33l-14.34 26.53c-2.42 4.47-7.75 6.5-12.52 4.76l-14.43-5.26c-4.78-1.73-7.56-6.71-6.54-11.69l8.52-41.49c-3.62-1.82-7.18-3.75-10.67-5.77-6.17-3.58-13.93-2.89-19.27 1.85l-22.55 20.03c-3.8 3.37-9.5 3.45-13.39.18l-11.77-9.87c-3.89-3.27-4.8-8.89-2.14-13.22l15.04-24.44c30.5 13.74 64.33 21.39 99.95 21.39 134.48 0 243.5-109.02 243.5-243.5 0-20.66-2.57-40.71-7.42-59.87l26.72-10.59c4.73-1.87 10.11.01 12.65 4.41l7.68 13.3c2.54 4.4 1.48 10-2.51 13.16l-23.62 18.72c-5.59 4.43-7.61 11.93-5.17 18.63.03.09.06.17.09.25 2.43 6.7 8.81 11.15 15.94 10.95l30.13-.84c5.08-.14 9.49 3.46 10.38 8.46l2.66 15.13c.89 5-2.03 9.9-6.85 11.5l-28.64 9.53c-6.76 2.25-11.25 8.59-11.24 15.71v.3c-.01 7.12 4.48 13.46 11.24 15.71l28.64 9.53c4.82 1.6 7.74 6.5 6.85 11.5z" fill="#8f8b81"/><circle cx="256" cy="256" fill="#606060" r="138.407"/><path d="m394.41 256c0 76.44-61.97 138.41-138.41 138.41-14.8 0-29.05-2.32-42.42-6.62 78.01-6.08 139.41-71.31 139.41-150.87 0-43.49-18.34-82.7-47.72-110.3 52.12 19.86 89.14 70.3 89.14 129.38z" fill="#595751"/><g><path d="m340.223 264.671-9.782-3.254c-2.307-.767-3.84-2.934-3.838-5.366 0-.017 0-.034 0-.052 0-.017 0-.034 0-.052-.002-2.432 1.531-4.598 3.838-5.366l9.782-3.254c1.647-.548 2.644-2.22 2.342-3.929l-.911-5.167c-.301-1.709-1.81-2.94-3.545-2.891l-10.29.288c-2.435.068-4.614-1.45-5.445-3.74-.01-.028-.021-.057-.031-.085-.834-2.288-.142-4.853 1.767-6.366l8.068-6.394c1.36-1.078 1.725-2.99.857-4.493l-2.623-4.544c-.868-1.503-2.706-2.143-4.32-1.504l-9.586 3.796c-2.263.896-4.827.216-6.392-1.647-.018-.021-.035-.042-.053-.063-1.569-1.865-1.796-4.513-.519-6.589l5.402-8.781c.91-1.478.598-3.4-.731-4.516l-4.019-3.372c-1.33-1.116-3.276-1.088-4.574.064l-7.703 6.84c-1.823 1.619-4.471 1.855-6.581.632-.025-.014-.05-.029-.075-.043-2.107-1.217-3.221-3.625-2.732-6.009l2.072-10.091c.349-1.7-.601-3.399-2.232-3.993l-4.93-1.794c-1.631-.594-3.451.098-4.276 1.624l-4.899 9.062c-1.157 2.14-3.558 3.268-5.954 2.847-.028-.005-.057-.01-.085-.015-2.402-.418-4.279-2.302-4.635-4.714l-1.505-10.191c-.253-1.717-1.727-2.989-3.463-2.989h-5.247c-1.736 0-3.209 1.272-3.463 2.989l-1.505 10.191c-.356 2.412-2.234 4.296-4.635 4.714-.028.005-.057.01-.085.015-2.396.42-4.797-.707-5.954-2.847l-4.899-9.062c-.825-1.527-2.645-2.218-4.276-1.624l-4.93 1.794c-1.631.594-2.581 2.293-2.232 3.993l2.072 10.091c.489 2.383-.625 4.791-2.732 6.009-.025.014-.05.029-.075.043-2.109 1.222-4.758.986-6.581-.632l-7.703-6.84c-1.298-1.152-3.244-1.18-4.574-.064l-4.019 3.372c-1.33 1.116-1.641 3.037-.731 4.515l5.402 8.781c1.277 2.076 1.05 4.724-.519 6.589-.018.021-.035.042-.053.063-1.565 1.864-4.13 2.543-6.392 1.647l-9.586-3.796c-1.614-.639-3.452.001-4.32 1.504l-2.623 4.544c-.868 1.503-.503 3.415.857 4.493l8.068 6.394c1.909 1.513 2.602 4.077 1.767 6.366-.01.028-.021.057-.031.085-.831 2.289-3.011 3.808-5.445 3.74l-10.29-.288c-1.735-.049-3.243 1.182-3.545 2.891l-.911 5.167c-.301 1.709.695 3.381 2.342 3.929l9.782 3.254c2.307.767 3.84 2.934 3.838 5.366v.052.052c.002 2.432-1.531 4.598-3.838 5.366l-9.782 3.254c-1.647.548-2.644 2.22-2.342 3.929l.911 5.167c.301 1.709 1.81 2.94 3.545 2.891l10.29-.288c2.435-.068 4.614 1.45 5.445 3.74.01.028.021.057.031.085.834 2.288.142 4.853-1.767 6.366l-8.068 6.394c-1.36 1.078-1.725 2.99-.857 4.493l2.623 4.544c.868 1.503 2.706 2.143 4.32 1.504l9.586-3.796c2.263-.896 4.827-.216 6.392 1.647.018.021.035.042.053.063 1.569 1.865 1.796 4.513.519 6.589l-5.402 8.781c-.91 1.478-.598 3.4.731 4.515l4.019 3.372c1.33 1.116 3.276 1.088 4.574-.064l7.703-6.84c1.823-1.619 4.471-1.855 6.581-.632 1.193.691 2.408 1.349 3.644 1.971l-2.91 14.172c-.349 1.7.601 3.399 2.232 3.993l4.93 1.794c1.631.594 3.451-.098 4.276-1.624l4.899-9.062c1.157-2.14 3.558-3.268 5.954-2.847.028.005.057.01.085.015 2.402.418 4.279 2.302 4.635 4.714l1.505 10.191c.253 1.717 1.727 2.989 3.463 2.989h5.247c1.736 0 3.209-1.272 3.463-2.989l1.505-10.191c.356-2.412 2.233-4.296 4.635-4.714.028-.005.057-.01.085-.015 2.396-.42 4.797.707 5.954 2.847l4.899 9.062c.826 1.527 2.645 2.218 4.276 1.624l4.93-1.794c1.631-.594 2.581-2.293 2.232-3.993l-2.072-10.091c-.489-2.383.625-4.791 2.732-6.009.025-.014.05-.029.075-.043 2.109-1.222 4.758-.986 6.581.632l7.703 6.84c1.298 1.152 3.244 1.18 4.574.064l4.019-3.372c1.33-1.116 1.641-3.037.731-4.516l-5.402-8.781c-1.277-2.076-1.05-4.724.519-6.589.018-.021.035-.042.053-.063 1.565-1.864 4.13-2.543 6.392-1.647l9.586 3.796c1.614.639 3.452-.001 4.32-1.504l2.623-4.544c.868-1.503.503-3.415-.857-4.493l-8.067-6.394c-1.909-1.513-2.602-4.077-1.767-6.366.01-.028.021-.057.031-.085.831-2.289 3.011-3.808 5.445-3.74l10.29.288c1.735.049 3.243-1.182 3.545-2.891l.911-5.167c.302-1.707-.695-3.379-2.342-3.927z" fill="#a9cffc"/></g><g><path d="m342.57 268.6-.92 5.17c-.3 1.71-1.81 2.94-3.54 2.89l-10.29-.29c-2.44-.07-4.61 1.45-5.45 3.74-.01.03-.02.06-.03.08-.83 2.29-.14 4.86 1.77 6.37l8.07 6.39c1.36 1.08 1.72 2.99.86 4.5l-2.63 4.54c-.87 1.5-2.7 2.14-4.32 1.51l-9.58-3.8c-2.27-.9-4.83-.22-6.4 1.65-.01.02-.03.04-.05.06-1.57 1.86-1.79 4.51-.52 6.59l5.4 8.78c.91 1.48.6 3.4-.73 4.52l-4.02 3.37c-1.33 1.11-3.27 1.09-4.57-.07l-7.7-6.84c-1.83-1.61-4.47-1.85-6.58-.63-.03.02-.05.03-.08.04-2.1 1.22-3.22 3.63-2.73 6.01l2.07 10.09c.35 1.7-.6 3.4-2.23 4l-4.93 1.79c-1.63.6-3.45-.1-4.28-1.62l-4.89-9.06c-1.16-2.14-3.56-3.27-5.96-2.85-.03 0-.06.01-.08.01-2.41.42-4.28 2.31-4.64 4.72l-1.5 10.19c-.26 1.72-1.73 2.99-3.47 2.99h-5.24c-1.74 0-3.21-1.27-3.47-2.99l-1.5-10.19c-.36-2.41-2.23-4.3-4.64-4.72-.02 0-.05-.01-.08-.01-2.4-.42-4.8.71-5.96 2.85l-4.89 9.06c-.83 1.52-2.65 2.22-4.28 1.62l-4.93-1.79c-1.63-.6-2.58-2.3-2.23-4l2.89-14.07c51.6-1.81 92.86-44.22 92.86-96.26 0-3.6-.2-7.16-.59-10.66l9.53-3.78c1.62-.63 3.45.01 4.32 1.51l2.63 4.54c.86 1.51.5 3.42-.86 4.5l-8.07 6.39c-1.91 1.51-2.6 4.08-1.77 6.37.01.02.02.05.03.08.84 2.29 3.01 3.81 5.45 3.74l10.29-.29c1.73-.05 3.24 1.18 3.54 2.89l.92 5.17c.3 1.71-.7 3.38-2.35 3.93l-9.78 3.25c-2.31.77-3.84 2.94-3.84 5.37v.1c0 2.43 1.53 4.6 3.84 5.37l9.78 3.25c1.65.55 2.65 2.22 2.35 3.93z" fill="#7cbaf7"/></g><path d="m391.811 308.732-112.799-65.135v-130.247h-46v130.246l-112.822 65.135 23 39.838 112.821-65.135 112.798 65.134z" fill="#b5b1a4"/><g fill="#8f8b81"><path d="m279.01 113.35v31.55c-7.43-1.54-15.13-2.34-23.01-2.34s-15.57.8-22.99 2.34v-31.55z"/><path d="m391.81 308.73-23 39.84-28.63-16.53c10.27-11.37 18.28-24.83 23.3-39.66z"/><path d="m171.82 332.04-28.63 16.53-23-39.84 28.33-16.35c5.02 14.83 13.03 28.29 23.3 39.66z"/></g><path d="m256 81.435c-96.41 0-174.565 78.155-174.565 174.565s78.155 174.565 174.565 174.565 174.565-78.155 174.565-174.565-78.155-174.565-174.565-174.565zm0 312.975c-76.44 0-138.41-61.97-138.41-138.41s61.97-138.41 138.41-138.41 138.41 61.97 138.41 138.41-61.97 138.41-138.41 138.41z" fill="#7cbaf7"/><path d="m382.284 312.721c-7.709 17.134-18.803 32.417-32.43 44.996-7.412 6.843-7.519 18.533-.386 25.666l.268.268c6.766 6.766 17.699 7.05 24.725.554 17.131-15.84 31.076-35.073 40.779-56.629 3.344-7.428 1.264-16.163-5.066-21.29-.101-.082-.203-.164-.304-.246-9.143-7.409-22.757-4.051-27.586 6.681z" fill="#a9cffc"/><path d="m194.261 117.614-.076-.362c-2.522-11.972-16.051-17.986-26.596-11.781-51.553 30.336-86.154 86.385-86.154 150.529 0 25.07 5.288 48.903 14.807 70.448 5.134 11.62 20.344 14.455 29.327 5.472 5.259-5.259 6.787-13.213 3.779-20.015-7.559-17.096-11.758-36.01-11.758-55.905 0-50.772 27.346-95.145 68.108-119.226 6.658-3.933 10.157-11.593 8.563-19.16z" fill="#a9cffc"/><path d="m111.527 158.041c-12.066 17.756-20.946 37.85-25.814 59.467-2.552 11.331 6.014 22.12 17.629 22.12 8.518 0 15.794-5.965 17.673-14.272 3.839-16.977 10.8-32.768 20.245-46.743 4.534-6.708 4.125-15.59-1.124-21.754l-.237-.279c-7.633-8.964-21.754-8.278-28.372 1.461z" fill="#cbe1ff"/><circle cx="256" cy="256" fill="#606060" r="51.999"/><circle cx="256" cy="256" fill="#706c64" r="23.012"/></g><path d="m256 50.13c-48.126 0-92.381 16.527-127.431 44.201-7.339 5.795-7.948 16.716-1.335 23.328 5.645 5.645 14.587 6.076 20.857 1.136 29.697-23.394 67.169-37.355 107.909-37.355 34.257 0 66.203 9.873 93.161 26.922 6.207 3.925 14.292 3.069 19.485-2.123 7.11-7.11 5.754-18.959-2.743-24.336-31.8-20.121-69.489-31.773-109.903-31.773z" fill="#d8d4c9"/><path d="m332.755 64.947c-17.671-7.113-36.552-11.85-56.254-13.803-9.225-.914-17.237 6.311-17.237 15.581 0 8.019 6.058 14.776 14.038 15.564 16.723 1.65 32.749 5.666 47.747 11.701 7.478 3.009 16.019-.206 19.632-7.412.047-.093.094-.187.14-.28 4.065-8.109.349-17.964-8.066-21.351z" fill="#e8e4d8"/></g></svg>