<?xml version="1.0" encoding="iso-8859-1"?>
<!-- Generator: Adobe Illustrator 19.0.0, SVG Export Plug-In . SVG Version: 6.00 Build 0)  -->
<svg version="1.1" id="Capa_1" xmlns="http://www.w3.org/2000/svg" xmlns:xlink="http://www.w3.org/1999/xlink" x="0px" y="0px"
	 viewBox="0 0 512 512" style="enable-background:new 0 0 512 512;" xml:space="preserve">
<circle style="fill:#827DDC;" cx="256" cy="256" r="256"/>
<path style="fill:#6E64C3;" d="M353.58,190.934l-29.529-29.529c-5.095-5.094-12.013-8.366-19.691-8.752l-37.748-37.748
	L93.126,145.343v217.313L242.09,511.62c4.606,0.247,9.242,0.38,13.91,0.38c130.026,0,237.401-96.941,253.816-222.489L401.89,181.584
	c-0.001-0.001-0.002-0.002-0.004-0.004l0,0c-5.372-5.371-12.793-8.693-20.99-8.693C368.632,172.887,358.107,180.325,353.58,190.934z
	"/>
<g>
	<polygon style="fill:#302C89;" points="93.126,362.657 266.612,393.094 266.612,114.906 93.126,145.343 	"/>
	<path style="fill:#302C89;" d="M279.106,347c6.485,5.241,14.735,8.385,23.722,8.385c20.864,0,37.778-16.914,37.778-37.778v-90.832
		h-61.501L279.106,347L279.106,347z"/>
	<path style="fill:#302C89;" d="M302.828,212.646c16.577,0,30.016-13.438,30.016-30.016c0-16.577-13.438-30.016-30.016-30.016
		c-9.651,0-18.232,4.56-23.722,11.637v36.758C284.597,208.087,293.177,212.646,302.828,212.646z"/>
	<path style="fill:#302C89;" d="M418.262,246.237H353.03v80.234c6.857,8.07,17.076,13.188,28.482,13.188
		c9.981,0,19.545-3.992,26.563-11.087c7.018-7.095,10.905-16.703,10.796-26.681L418.262,246.237z"/>
	<circle style="fill:#302C89;" cx="380.9" cy="202.57" r="29.688"/>
</g>
<path style="fill:#FFFFFF;" d="M214.083,222.896h-25.88v75.613h-15.619v-75.613h-25.88v-15.533h67.378v15.533H214.083z"/>
<g>
</g>
<g>
</g>
<g>
</g>
<g>
</g>
<g>
</g>
<g>
</g>
<g>
</g>
<g>
</g>
<g>
</g>
<g>
</g>
<g>
</g>
<g>
</g>
<g>
</g>
<g>
</g>
<g>
</g>
</svg>
