<?xml version="1.0" encoding="iso-8859-1"?>
<!-- Generator: Adobe Illustrator 19.0.0, SVG Export Plug-In . SVG Version: 6.00 Build 0)  -->
<svg version="1.1" id="Capa_1" xmlns="http://www.w3.org/2000/svg" xmlns:xlink="http://www.w3.org/1999/xlink" x="0px" y="0px"
	 viewBox="0 0 480 480" style="enable-background:new 0 0 480 480;" xml:space="preserve">
<linearGradient id="SVGID_1_" gradientUnits="userSpaceOnUse" x1="-26.875" y1="558.185" x2="-26.875" y2="619.663" gradientTransform="matrix(8 0 0 -8 455 4941)">
	<stop  offset="0" style="stop-color:#006DF0"/>
	<stop  offset="1" style="stop-color:#00E7F0"/>
</linearGradient>
<path style="fill:url(#SVGID_1_);" d="M0,464h480v16H0V464z"/>
<g>
	
		<linearGradient id="SVGID_2_" gradientUnits="userSpaceOnUse" x1="-47.875" y1="558.185" x2="-47.875" y2="619.663" gradientTransform="matrix(8 0 0 -8 455 4941)">
		<stop  offset="0" style="stop-color:#006DF0"/>
		<stop  offset="1" style="stop-color:#00E7F0"/>
	</linearGradient>
	<path style="fill:url(#SVGID_2_);" d="M112,448H32c-4.418,0-8-3.582-8-8V296c0-4.418,3.582-8,8-8h80c4.418,0,8,3.582,8,8v144
		C120,444.418,116.418,448,112,448z M40,432h64V304H40V432z"/>
	
		<linearGradient id="SVGID_3_" gradientUnits="userSpaceOnUse" x1="-19.875" y1="558.185" x2="-19.875" y2="619.663" gradientTransform="matrix(8 0 0 -8 455 4941)">
		<stop  offset="0" style="stop-color:#006DF0"/>
		<stop  offset="1" style="stop-color:#00E7F0"/>
	</linearGradient>
	<path style="fill:url(#SVGID_3_);" d="M336,448h-80c-4.418,0-8-3.582-8-8V200c0-4.418,3.582-8,8-8h80c4.418,0,8,3.582,8,8v240
		C344,444.418,340.418,448,336,448z M264,432h64V208h-64V432z"/>
	
		<linearGradient id="SVGID_4_" gradientUnits="userSpaceOnUse" x1="-33.875" y1="558.185" x2="-33.875" y2="619.663" gradientTransform="matrix(8 0 0 -8 455 4941)">
		<stop  offset="0" style="stop-color:#006DF0"/>
		<stop  offset="1" style="stop-color:#00E7F0"/>
	</linearGradient>
	<path style="fill:url(#SVGID_4_);" d="M224,448h-80c-4.418,0-8-3.582-8-8V104c0-4.418,3.582-8,8-8h80c4.418,0,8,3.582,8,8v336
		C232,444.418,228.418,448,224,448z M152,432h64V112h-64V432z"/>
	
		<linearGradient id="SVGID_5_" gradientUnits="userSpaceOnUse" x1="-5.875" y1="558.185" x2="-5.875" y2="619.663" gradientTransform="matrix(8 0 0 -8 455 4941)">
		<stop  offset="0" style="stop-color:#006DF0"/>
		<stop  offset="1" style="stop-color:#00E7F0"/>
	</linearGradient>
	<path style="fill:url(#SVGID_5_);" d="M448,448h-80c-4.418,0-8-3.582-8-8V8c0-4.418,3.582-8,8-8h80c4.418,0,8,3.582,8,8v432
		C456,444.418,452.418,448,448,448z M376,432h64V16h-64V432z"/>
</g>
<g>
</g>
<g>
</g>
<g>
</g>
<g>
</g>
<g>
</g>
<g>
</g>
<g>
</g>
<g>
</g>
<g>
</g>
<g>
</g>
<g>
</g>
<g>
</g>
<g>
</g>
<g>
</g>
<g>
</g>
</svg>
